# xmcd
#
# Track frame offsets:
#	150
#	28934
#	62834
#	94128
#	115344
#	151640
#	197006
#	223919
#	246600
#	259238
#	276181
#
# Disc length: 4108 seconds
#
# Revision: 0
# Processed by: cddbd v1.5.2PL0 Copyright (c) Steve Scherf et al.
# Submitted via: MusicManager 7.3.0.0 
#
DISCID=a8100a0b
DTITLE=Melvin Taylor - Travelin' Man - Disk 02
DYEAR=1138
DGENRE=blues
TTITLE0=Travelin' Man
TTITLE1=Lowdown Dirty Shame
TTITLE2=Escape
TTITLE3=Cold Cold Feeling
TTITLE4=Just Like a Woman
TTITLE5=Chitlins Con Carne
TTITLE6=Blues Dues
TTITLE7=Louisianna Blues
TTITLE8=I've Got to Tell Somebody
TTITLE9=My Baby and Me
TTITLE10=Don't Answer The Door
EXTD=
EXTT0=
EXTT1=
EXTT2=
EXTT3=
EXTT4=
EXTT5=
EXTT6=
EXTT7=
EXTT8=
EXTT9=
EXTT10=
PLAYORDER=
